#!OML:ASF F:\VICON\USERDATA\INSTALL\rory3\rory3.ASF
:FULLY-SPECIFIED
:DEGREES
62
root -1.0079675250625018 17.699996624101473 2.570273497496207 4.7015327100501 -3.239009609326289 -2.8452877445282616
lfemur -22.503708001699877 7.200726471935377 -17.560822259001522
ltibia 84.20717617402663
lfoot 2.639755128676157 -12.150049142053117
ltoes -21.953230564852756
rfemur -26.040008026014345 4.4553759463659945 29.347924029179726
rtibia 47.35876081000629
rfoot 1.0569325250712067 -7.3859740449361535
rtoes -8.076917191594418
lowerback 15.36169671270326 1.8170058158008575 3.0059479297776934
upperback -0.4189747536930499 3.2573397256242926 2.2014429387558963
thorax -9.091958016547762 1.5075787426675045 -1.2594172284979113
lowerneck -19.903105020539318 -4.409014689335734 -1.4582301032394862
upperneck 14.011299155630116 -6.403876328381274 4.054975040976455
head 8.083577428976096 -2.6194613326198155 0.7394609798710641
lclavicle -2.049053316648478e-17 4.25809920034873e-16
lhumerus -43.045252604764116 -8.825734107487884 90.3274532778067
lradius 104.3823468972536
lwrist 35.73589277889934
lhand -25.39904976330752 3.354635489153728
lfingers 7.125019999999998
lthumb 1.9281897858316057 34.8553746074511
rclavicle -2.049053337917229e-17 4.2580991989422206e-16
rhumerus -52.01907364030789 13.292257403431089 -95.86158002686606
rradius 89.34025227993163
rwrist -23.182007979088457
rhand -19.075511542654137 43.64407236571891
rfingers 7.125019999999998
rthumb 6.782551512921109 13.975694864047806
63
root -0.9939994140646802 17.72381428957047 2.958093939954135 4.6619245710437625 -3.1847487114673965 -2.926043488993443
lfemur -23.858763625862615 7.200547241648813 -17.379244553234138
ltibia 85.97732067959113
lfoot 3.7522026265396655 -12.107076301781275
ltoes -22.72774170899217
rfemur -24.426552830421222 4.418195215643291 29.65197359294995
rtibia 46.67758133164345
rfoot 2.3468711963641287 -7.198094150620795
rtoes -8.78597954448708
lowerback 15.294614473409386 1.8763271284178744 3.1925669720167975
upperback -0.48365972787270456 3.3748764534997715 2.12500031044636
thorax -9.020284962053115 1.5449950398881758 -1.5007336827572813
lowerneck -19.659099477107052 -4.492517555877465 -1.4758042476420759
upperneck 14.206185763910884 -6.517813637533755 3.973008080003425
head 8.140125258681241 -2.6775800657284106 0.7134599608820602
lclavicle -2.0490533166621793e-17 4.2580992003431143e-16
lhumerus -43.03508529043842 -8.892366922576588 90.53698354737496
lradius 105.6664995967115
lwrist 35.697992233927714
lhand -25.46037266995683 3.0489318884395122
lfingers 7.125019999999998
lthumb 2.1738420669366354 34.6036650348032
rclavicle -2.0490533375212425e-17 4.2580991989627704e-16
rhumerus -52.48760577247366 12.960290830984492 -95.6460701234362
rradius 90.02098839456691
rwrist -23.08446986357536
rhand -19.15021689505241 43.65074224056463
rfingers 7.125019999999998
rthumb 6.780599514896476 14.009684713233149
64
root -0.9808116511971157 17.733837180967445 3.24493888073661 4.593743778654032 -3.0996288638621734 -2.988144051498723
lfemur -25.19206797199891 7.214260903057318 -17.222943397965814
ltibia 87.53407649098152
lfoot 5.252668425570511 -11.957364438384557
ltoes -23.336514278928355
rfemur -22.79465720773265 4.3738888345540925 29.888966112328696
rtibia 46.15078135209242
rfoot 3.806118735582042 -7.254338525859359
rtoes -10.423959396024717
lowerback 15.234892654356521 1.934740407973391 3.3582884268282203
upperback -0.4947304461769653 3.4577373984681636 2.0236289708318713
thorax -8.84673135235892 1.5738370277619258 -1.7003764136734818
lowerneck -19.63836940500437 -4.556406357207076 -1.4427748245485508
upperneck 14.456283749099192 -6.615758509925977 3.8743812360659353
head 8.236850647995626 -2.7378652207640695 0.6788663839111652
lclavicle -2.049053316678846e-17 4.258099200338895e-16
lhumerus -43.00137345151943 -9.086123421419726 90.62429808051938
lradius 106.79044080923146
lwrist 35.71422783084528
lhand -25.491820151440535 3.1599765586823176
lfingers 7.125019999999998
lthumb 1.9371118003385837 33.45095141308336
rclavicle -2.049053337517268e-17 4.258099198959558e-16
rhumerus -52.89434538063491 12.588693813743138 -95.42252707341223
rradius 90.67746330248353
rwrist -23.01418539050378
rhand -19.21414859543171 43.72307678976866
rfingers 7.125019999999998
rthumb 6.724179651695394 13.999758193706247
65
root -0.9751957546281091 17.741027440178907 3.4920002128705727 4.528154499621127 -2.9767967926452696 -3.0234342903650027
lfemur -26.606773516853096 7.211103481862497 -17.09551217310711
ltibia 88.87823388621554
lfoot 6.301854862447735 -12.055779724374709
ltoes -25.22288181660401
rfemur -21.14330240886583 4.401282504351122 30.064231067712168
rtibia 45.778195123915
rfoot 6.073424536207566 -7.263908493847945
rtoes -9.584067747005008
lowerback 15.217253445819225 1.9922441459705884 3.4762424764057602
upperback -0.533800398441806 3.5446387348333412 1.9107471358084878
thorax -8.754590743431404 1.595178056846526 -1.8716427236231965
lowerneck -19.376392990144524 -4.630873120956647 -1.4190510453391554
upperneck 14.565853105536366 -6.7304735097296415 3.7760898921617905
head 8.267328535058105 -2.8078674733714655 0.6454610284058836
lclavicle -2.0490533164058162e-17 4.2580992003529297e-16
lhumerus -43.07188671858938 -9.25032013050206 90.7832102956875
lradius 107.8145492397477
lwrist 35.703987538103306
lhand -25.493825397472932 2.7485779722495702
lfingers 7.125019999999998
lthumb 1.758105574350167 32.856647879394224
rclavicle -2.0490533374485446e-17 4.258099198960622e-16
rhumerus -53.35539471456431 12.1657314815682 -95.21484760962268
rradius 91.32776942484135
rwrist -22.839493776845103
rhand -19.27098585159471 43.814312599664554
rfingers 7.125019999999998
rthumb 6.608280548247057 13.988915131475324
